<svg xmlns="http://www.w3.org/2000/svg" width="512" height="512" viewBox="0 0 512 512">
  <!-- Background -->
  <rect width="512" height="512" fill="#4F46E5" rx="96"/>
  
  <!-- Calendar Icon -->
  <rect x="96" y="128" width="320" height="288" rx="24" fill="#fff"/>
  
  <!-- Calendar Header -->
  <rect x="96" y="128" width="320" height="64" rx="24" fill="#FBBF24"/>
  <rect x="96" y="168" width="320" height="24" fill="#FBBF24"/>
  
  <!-- Calendar Rings -->
  <circle cx="160" cy="144" r="16" fill="#4F46E5"/>
  <circle cx="256" cy="144" r="16" fill="#4F46E5"/>
  <circle cx="352" cy="144" r="16" fill="#4F46E5"/>
  
  <!-- Calendar Grid Dots -->
  <circle cx="144" cy="240" r="12" fill="#6366F1"/>
  <circle cx="208" cy="240" r="12" fill="#6366F1"/>
  <circle cx="272" cy="240" r="12" fill="#6366F1"/>
  <circle cx="336" cy="240" r="12" fill="#6366F1"/>
  
  <circle cx="144" cy="304" r="12" fill="#6366F1"/>
  <circle cx="208" cy="304" r="12" fill="#6366F1"/>
  <circle cx="272" cy="304" r="12" fill="#6366F1"/>
  <circle cx="336" cy="304" r="12" fill="#6366F1"/>
  
  <!-- Special Holiday Star -->
  <path d="M 256 344 L 268 372 L 298 376 L 277 397 L 282 427 L 256 413 L 230 427 L 235 397 L 214 376 L 244 372 Z" fill="#EF4444"/>
</svg>
